<svg version="1.1" id="Ebene_1" xmlns="http://www.w3.org/2000/svg" x="0" y="0" viewBox="0 0 133 38" xml:space="preserve"><style>.st5{opacity:.12;enable-background:new}.st8{fill:#fff;stroke:#fff;stroke-width:.2;stroke-miterlimit:10}</style><path id="Shape" d="M133.1 34.4c0 2.1-1.7 3.8-3.8 3.8H3.8c-2.1 0-3.8-1.7-3.8-3.8V3.8C0 1.7 1.7 0 3.8 0h125.5c2.1 0 3.8 1.7 3.8 3.8v30.6z"/><g id="Group" transform="translate(8 6)"><linearGradient id="Shape_1_" gradientUnits="userSpaceOnUse" x1="-910.47" y1="-60.998" x2="-911.761" y2="-60.327" gradientTransform="matrix(13 0 0 25 11848.9 1526.61)"><stop offset="0" stop-color="#00a0ff"/><stop offset=".007" stop-color="#00a1ff"/><stop offset=".26" stop-color="#00beff"/><stop offset=".512" stop-color="#00d2ff"/><stop offset=".76" stop-color="#00dfff"/><stop offset="1" stop-color="#00e3ff"/></linearGradient><path id="Shape_2_" d="M1.4.5c-.3.3-.5.8-.5 1.4V24c0 .6.2 1.1.5 1.4l.1.1 12.4-12.4v-.2L1.4.5z" fill="url(#Shape_1_)"/><linearGradient id="Shape_9_" gradientUnits="userSpaceOnUse" x1="-889.356" y1="-10.695" x2="-891.74" y2="-10.695" gradientTransform="matrix(10.15 0 0 8.5 9051.8 103.957)"><stop offset="0" stop-color="#ffe000"/><stop offset=".409" stop-color="#ffbd00"/><stop offset=".775" stop-color="orange"/><stop offset="1" stop-color="#ff9c00"/></linearGradient><path id="Shape_3_" d="M18 17.3l-4.1-4.1V12.9L18 8.8l.1.1 4.9 2.8c1.4.8 1.4 2.1 0 2.9l-5 2.7z" fill="url(#Shape_9_)"/><linearGradient id="Shape_10_" gradientUnits="userSpaceOnUse" x1="-927.054" y1="-36.736" x2="-928.417" y2="-34.97" gradientTransform="matrix(16.7 0 0 12.8885 15497.6 488.765)"><stop offset="0" stop-color="#ff3a44"/><stop offset="1" stop-color="#c31162"/></linearGradient><path id="Shape_4_" d="M18.1 17.2L13.9 13 1.4 25.5c.5.5 1.2.5 2.1.1l14.6-8.4" fill="url(#Shape_10_)"/><linearGradient id="Shape_11_" gradientUnits="userSpaceOnUse" x1="-928.104" y1="-37.224" x2="-927.496" y2="-36.432" gradientTransform="matrix(16.7 0 0 12.8287 15497.6 470.743)"><stop offset="0" stop-color="#32a071"/><stop offset=".069" stop-color="#2da771"/><stop offset=".476" stop-color="#15cf74"/><stop offset=".801" stop-color="#06e775"/><stop offset="1" stop-color="#00f076"/></linearGradient><path id="Shape_5_" d="M18.1 8.8L3.5.5C2.6 0 1.9.1 1.4.6L13.9 13l4.2-4.2z" fill="url(#Shape_11_)"/><g id="Shape_6_"><path d="M17 .1L2.5 8.3c-.8.5-1.5.4-2 0l-.1.1.1.1c.5.4 1.2.5 2 0L17 .1z" opacity=".2" transform="translate(1 17)"/><path class="st5" d="M.4 8.3C.1 8 0 7.5 0 6.9V7c0 .6.2 1.1.4 1.3z" transform="translate(1 17)"/></g><path id="Shape_7_" class="st5" d="M23 14.3l-5 2.8.1.1 4.9-2.9c.7-.3 1-.8 1-1.3 0 .5-.4.9-1 1.3z"/><path id="Shape_8_" d="M3.5.6L23 11.7c.6.4 1 .8 1 1.3 0-.5-.3-1-1-1.4L3.5.5C2.1-.3 1 .4 1 2v.1C1 .5 2.1-.2 3.5.6z" opacity=".25" fill="#fff"/></g><path d="M66.2 21.9c-2.3 0-4.2 1.7-4.2 4.1s1.9 4.1 4.2 4.1c2.3 0 4.2-1.8 4.2-4.1 0-2.4-1.9-4.1-4.2-4.1zm0 6.7c-1.3 0-2.3-1-2.3-2.5s1.1-2.5 2.3-2.5c1.3 0 2.3 1 2.3 2.5.1 1.4-1 2.5-2.3 2.5zm-9-6.7c-2.3 0-4.2 1.7-4.2 4.1s1.9 4.1 4.2 4.1 4.2-1.8 4.2-4.1c-.1-2.4-1.9-4.1-4.2-4.1zm0 6.7c-1.3 0-2.3-1-2.3-2.5s1.1-2.5 2.3-2.5c1.3 0 2.3 1 2.3 2.5 0 1.4-1.1 2.5-2.3 2.5zm-10.8-5.4V25h4.2c-.1 1-.5 1.7-1 2.2-.6.6-1.6 1.3-3.2 1.3-2.6 0-4.6-2.1-4.6-4.7s2-4.7 4.6-4.7c1.4 0 2.4.5 3.2 1.3l1.2-1.2c-1.1-1-2.4-1.8-4.4-1.8-3.5 0-6.5 2.9-6.5 6.4s3 6.4 6.5 6.4c1.9 0 3.4-.6 4.5-1.8 1.2-1.2 1.5-2.8 1.5-4.1 0-.4 0-.8-.1-1.1h-5.9zm44.1 1.3c-.3-.9-1.4-2.6-3.5-2.6s-3.9 1.7-3.9 4.1c0 2.3 1.8 4.1 4.1 4.1 1.9 0 3-1.2 3.5-1.8l-1.4-.9c-.5.7-1.1 1.1-2 1.1s-1.6-.4-2-1.3l5.5-2.3-.3-.4zm-5.6 1.4c0-1.6 1.2-2.4 2.2-2.4.7 0 1.3.4 1.5.9l-3.7 1.5zm-4.5 4h1.8V17.8h-1.8v12.1zm-3-7.1c-.5-.5-1.3-.9-2.2-.9-2.1 0-4 1.8-4 4.2 0 2.3 1.9 4.1 4 4.1 1 0 1.8-.4 2.2-.9h.1v.6c0 1.6-.8 2.4-2.2 2.4-1.1 0-1.8-.8-2.1-1.5l-1.6.7c.5 1.1 1.7 2.4 3.7 2.4 2.1 0 3.9-1.3 3.9-4.3v-7.4h-1.7v.6h-.1zm-2.1 5.8c-1.3 0-2.3-1.1-2.3-2.5 0-1.5 1.1-2.5 2.3-2.5 1.2 0 2.2 1.1 2.2 2.5s-1 2.5-2.2 2.5zM99 17.8h-4.4V30h1.8v-4.6H99c2 0 4-1.5 4-3.8s-1.9-3.8-4-3.8zm.1 5.8h-2.6v-4.2h2.6c1.4 0 2.1 1.1 2.1 2.1s-.7 2.1-2.1 2.1zm11.2-1.7c-1.3 0-2.7.6-3.2 1.9l1.6.7c.3-.7 1-.9 1.7-.9.9 0 1.9.6 1.9 1.6v.1c-.3-.2-1-.5-1.9-.5-1.7 0-3.5 1-3.5 2.7 0 1.6 1.4 2.7 3 2.7 1.2 0 1.9-.5 2.3-1.2h.1v.9h1.8v-4.7c-.1-2.1-1.7-3.3-3.8-3.3zm-.2 6.7c-.6 0-1.4-.3-1.4-1 0-.9 1-1.3 1.9-1.3.8 0 1.2.2 1.7.4-.2 1.1-1.1 1.9-2.2 1.9zm10.3-6.4l-2.1 5.3h-.1l-2.2-5.3h-2l3.2 7.4-1.8 4.1h1.9l5-11.5h-1.9zM104 29.9h1.8V17.8H104v12.1z" fill="#fff"/><path class="st8" d="M42.5 12.8h-.8v-6h2c.5 0 .9.2 1.3.5s.6.8.6 1.3-.2.9-.6 1.3c-.4.3-.8.5-1.3.5h-1.3v2.4zm0-3.2h1.3c.3 0 .6-.1.8-.3.2-.2.3-.5.3-.7s-.1-.6-.3-.8c-.2-.2-.5-.3-.8-.3h-1.3v2.1zM51.6 12c-.6.6-1.3.9-2.2.9-.9 0-1.6-.3-2.2-.9-.6-.6-.9-1.3-.9-2.2s.3-1.6.9-2.2c.6-.6 1.3-.9 2.2-.9.9 0 1.6.3 2.2.9.6.6.9 1.3.9 2.2 0 .8-.3 1.6-.9 2.2zm-3.9-.5c.4.4 1 .7 1.6.7.6 0 1.2-.2 1.6-.7.4-.4.7-1 .7-1.7S51.5 8.5 51 8c-.4-.4-1-.7-1.6-.7-.6 0-1.2.2-1.6.7-.4.4-.7 1-.7 1.7s.2 1.3.6 1.8zM53.5 12.8v-6h2.2c.5 0 .9.2 1.2.5.3.3.5.7.5 1.2 0 .3-.1.5-.2.8-.1.2-.3.4-.6.5.3.1.5.3.7.5.2.2.3.5.3.9 0 .5-.2.9-.5 1.2-.4.3-.8.5-1.3.5h-2.3zm.8-3.5h1.4c.3 0 .5-.1.7-.3.2-.2.3-.4.3-.6s-.1-.4-.3-.6c-.2-.2-.4-.3-.7-.3h-1.4v1.8zm0 2.7h1.6c.3 0 .5-.1.7-.3.2-.2.3-.4.3-.7 0-.2-.1-.5-.3-.7-.2-.2-.4-.3-.7-.3h-1.5v2zM58.7 12.8v-6h.8v6h-.8zM64.3 7.5h-2.7v1.9h2.5v.7h-2.5V12h2.7v.7h-3.5v-6h3.5v.8zM65.5 12.8v-6h2c.5 0 .9.2 1.3.5s.6.8.6 1.3c0 .4-.1.8-.4 1.1-.3.3-.6.5-1 .6l1.7 2.4h-.9l-1.6-2.4h-.9v2.4h-.8zm.8-3.2h1.2c.3 0 .6-.1.8-.3.2-.2.3-.5.3-.8 0-.3-.1-.5-.3-.7-.2-.2-.5-.3-.8-.3h-1.3v2.1zM70.2 12.8V12l3.2-4.5h-3.1v-.7h4v.8L71.1 12h3.2v.7h-4.1zM77.1 12.8V12l3.2-4.5h-3.1v-.7h4v.8L78 12h3.2v.7h-4.1z"/></svg>